{"title":"Jay and Silent Bob Strike Back [2001]","uid":11924941,"size":665212304,"categoryP":"video","categoryS":"movies","magnet":"?xt=urn:btih:3854b1c70937ef929dc5710402064e93a44077ec&amp;dn=Jay+and+Silent+Bob+Strike+Back+%5B2001%5D&amp;tr=udp%3A%2F%2Ftracker.openbittorrent.com%3A80&amp;tr=udp%3A%2F%2Fopen.demonii.com%3A1337&amp;tr=udp%3A%2F%2Ftracker.coppersurfer.tk%3A6969&amp;tr=udp%3A%2F%2Fexodus.desync.com%3A6969","seeders":0,"leechers":1,"uploader":"YaMoonSun","files":1,"time":1431649364,"description":"Format                                   : MPEG-4\nFormat profile                           : Base Media / Version 2\nCodec ID                                 : mp42\nFile size                                : 634 MiB\nDuration                                 : 1h 44mn\nOverall bit rate mode                    : Variable\nOverall bit rate                         : 849 Kbps\n\nVideo\nID                                       : 1\nFormat                                   : AVC\nFormat/Info                              : Advanced Video Codec\nFormat profile                           : Main@L3\nFormat settings, CABAC                   : Yes\nFormat settings, ReFrames                : 4 frames\nCodec ID                                 : avc1\nCodec ID/Info                            : Advanced Video Coding\nDuration                                 : 1h 44mn\nBit rate                                 : 675 Kbps\nWidth                                    : 720 pixels\nHeight                                   : 480 pixels\nDisplay aspect ratio                     : 16:9\nOriginal display aspect ratio            : 16:9\nFrame rate mode                          : Variable\nFrame rate                               : 24.361 fps\nMinimum frame rate                       : 14.985 fps\nMaximum frame rate                       : 731.707 fps\nStandard                                 : NTSC\nColor space                              : YUV\nChroma subsampling                       : 4:2:0\nBit depth                                : 8 bits\nScan type                                : Progressive\nBits/(Pixel*Frame)                       : 0.080\nStream size                              : 504 MiB (79%)\nWriting library                          : x264 core 142 r2479 dd79a61\nColor range                              : Limited\nColor primaries                          : BT.601 NTSC\nTransfer characteristics                 : BT.709\nMatrix coefficients                      : BT.601\n\nAudio\nID                                       : 2\nFormat                                   : AAC\nFormat/Info                              : Advanced Audio Codec\nFormat profile                           : LC\nCodec ID                                 : 40\nDuration                                 : 1h 44mn\nBit rate mode                            : Variable\nBit rate                                 : 160 Kbps\nChannel(s)                               : 2 channels\nChannel(s)_Original                      : 6 channels\nChannel positions                        : Front: L C R, Side: L R, LFE\nSampling rate                            : 48.0 KHz\nCompression mode                         : Lossy\nStream size                              : 119 MiB (19%)\nTitle                                    : Surround / Surround\nLanguage                                 : English\n\nText\nID                                       : 3\nFormat                                   : mp4s\nCodec ID                                 : E0\nDuration                                 : 1h 44mn\nBit rate mode                            : Variable\nBit rate                                 : 7 274 bps\nStream size                              : 5.42 MiB (1%)\nLanguage                                 : English\n\nMenu\nID                                       : 4\nCodec ID                                 : text\nDuration                                 : 1h 44mn\nLanguage                                 : English\n00:00:00.000                             : Chapter 1\n00:04:29.569                             : Chapter 2\n00:12:42.228                             : Chapter 3\n00:16:15.475                             : Chapter 4\n00:23:42.054                             : Chapter 5\n00:29:14.353                             : Chapter 6\n00:33:11.456                             : Chapter 7\n00:43:10.021                             : Chapter 8\n00:49:46.584                             : Chapter 9\n00:58:08.251                             : Chapter 10\n01:02:09.526                             : Chapter 11\n01:04:32.335                             : Chapter 12\n01:08:38.381                             : Chapter 13\n01:14:43.079                             : Chapter 14\n01:20:57.453                             : Chapter 15\n01:30:03.498                             : Chapter 16\n01:32:32.847                             : Chapter 17\n01:34:05.741                             : Chapter 18\nBit rate mode                            : VBR","torrent":{"xt":"urn:btih:3854b1c70937ef929dc5710402064e93a44077ec","amp;dn":"Jay+and+Silent+Bob+Strike+Back+%5B2001%5D","amp;tr":["udp%3A%2F%2Ftracker.openbittorrent.com%3A80","udp%3A%2F%2Fopen.demonii.com%3A1337","udp%3A%2F%2Ftracker.coppersurfer.tk%3A6969","udp%3A%2F%2Fexodus.desync.com%3A6969"],"infoHash":"3854b1c70937ef929dc5710402064e93a44077ec","infoHashBuffer":{"type":"Buffer","data":[56,84,177,199,9,55,239,146,157,197,113,4,2,6,78,147,164,64,119,236]},"announce":[],"urlList":[]}}